<?xml version="1.0" encoding="UTF-8" standalone="no"?>
<svg
   width="449"
   height="449"
   viewBox="0 0 449 449"
   version="1.1"
   id="svg4"
   sodipodi:docname="output-onlinepngtools.svg"
   inkscape:version="1.4.3 (0d15f75, 2025-12-25)"
   xmlns:inkscape="http://www.inkscape.org/namespaces/inkscape"
   xmlns:sodipodi="http://sodipodi.sourceforge.net/DTD/sodipodi-0.dtd"
   xmlns="http://www.w3.org/2000/svg"
   xmlns:svg="http://www.w3.org/2000/svg">
  <defs
     id="defs4" />
  <sodipodi:namedview
     id="namedview4"
     pagecolor="#505050"
     bordercolor="#ffffff"
     borderopacity="1"
     inkscape:showpageshadow="0"
     inkscape:pageopacity="0"
     inkscape:pagecheckerboard="1"
     inkscape:deskcolor="#505050"
     inkscape:zoom="1.7216036"
     inkscape:cx="224.20957"
     inkscape:cy="273.87257"
     inkscape:window-width="1920"
     inkscape:window-height="991"
     inkscape:window-x="-9"
     inkscape:window-y="-9"
     inkscape:window-maximized="1"
     inkscape:current-layer="g4" />
  <g
     id="g4">
    <path
       d="m 276.2,356.02 c -11.4,2.4 -35.03,3.36 -46,1.88 -43,-5.82 -83.38,-31.61 -106.99,-68.33 -5.95,-9.25 -15.49,-29.11 -18.53,-38.57 l -2.42,-7.5 -39.38,-0.25 c -35.6,-0.23 -39.5,-0.42 -40.63,-1.95 -1.62,-2.18 -1.58,-2.83 0.32,-4.73 1.35,-1.35 5.26,-1.57 27.5,-1.57 14.26,0 25.93,-0.34 25.93,-0.75 -0.01,-0.41 -1.02,-1.94 -2.25,-3.41 -1.73,-2.03 -4.06,-3.04 -10,-4.31 -14.3,-3.07 -28.54,-12.2 -34.27,-21.98 -5.95,-10.15 -8.57,-24.59 -7.04,-38.88 0.89,-8.23 2.11,-9.65 7.79,-8.99 20.2,2.34 37.68,12.85 44.02,26.47 4.67,10.01 6.24,22.61 4.37,34.94 -0.66,4.34 -0.45,4.92 3.84,10.75 L 87,235 h 6 c 3.3,0 6,-0.43 6,-0.96 0,-0.53 -0.92,-4.92 -2.05,-9.75 -2.91,-12.45 -5.93,-32.72 -5.92,-39.79 0.02,-22.45 13.82,-45.39 32.99,-54.86 10.62,-5.24 16.74,-6.62 29.48,-6.61 9.47,0 12.12,0.39 19.06,2.8 20.04,6.98 28.64,16.87 40.44,46.56 4.99,12.54 5.11,12.54 9.41,-0.48 3.08,-9.33 5.58,-24.52 5.58,-34.04 l 0.01,-6.62 -5.75,-1.5 C 219.09,128.92 204.12,124.84 189,120.69 173.88,116.53 145.75,108.81 126.5,103.54 81.24,91.15 79.78,90.65 76.09,86.45 c -8.13,-9.25 -4.82,-23.71 6.39,-28 5.26,-2.01 9.02,-1.68 21.52,1.87 4.68,1.33 15.25,4.25 23.5,6.5 8.25,2.25 25.57,7 38.5,10.57 38.84,10.72 57.07,15.61 58.17,15.61 0.57,0 1.97,-1.18 3.1,-2.62 2.75,-3.5 7.56,-5.38 13.74,-5.38 8.84,0 14.64,4.29 19.86,14.67 2.33,4.65 0.75,3.99 25.97,10.87 l 13.35,3.64 1.63,-2.34 c 8.98,-12.87 27.09,-11.59 34.29,2.41 1.82,3.53 2.21,3.75 6.66,3.77 6.06,0.02 11.57,3.1 16.05,8.96 l 3.41,4.47 23.13,6.36 23.14,6.36 17,12.2 c 14,10.05 17.06,12.68 17.32,14.91 0.45,3.87 -1.41,4.35 -23.82,6.1 l -19.5,1.53 -9,-2.48 C 377.63,172.9 376,172.6 376,173.81 c 0,0.58 0.93,6.37 2.06,12.87 3.94,22.62 3.66,54.36 -0.65,73.02 -2.26,9.8 -7.23,23.15 -11.64,31.3 -18.23,33.65 -49.97,56.69 -89.57,65.02 z m -39.32,-6.06 c 23.27,2.1 49.01,-2.86 70.31,-13.54 11.88,-5.96 20.73,-12.35 30.33,-21.92 31.25,-31.13 41.66,-74.35 31.41,-130.4 -4.19,-22.92 -13.01,-48.08 -19.23,-54.86 -4.87,-5.32 -13.83,-4.7 -18.53,1.27 -2.68,3.41 -2.79,8.22 -0.46,19.63 2.22,10.88 2.47,45.94 0.4,56.36 -4.47,22.57 -16.66,42.41 -32.45,52.83 -6.55,4.32 -8.82,5.01 -11.09,3.35 -2.87,-2.11 -1.15,-5.04 5.32,-9.03 7.03,-4.34 16.6,-14.35 20.34,-21.29 l 2.73,-5.06 -7.73,-3.62 c -10.42,-4.87 -18.41,-6.66 -32.98,-7.37 l -12.25,-0.6 -1.18,3.39 c -2.46,7.09 -10.96,22.84 -16.22,30.04 -5.51,7.55 -20.65,23.09 -25.18,25.85 -1.84,1.12 -2.87,1.22 -4.18,0.4 -3.7,-2.32 -2.51,-4.7 6.48,-12.98 20.17,-18.58 34.39,-46.2 38.83,-75.41 1.87,-12.33 1.84,-36.82 -0.06,-49.5 -2.02,-13.46 -6.04,-28.8 -9.31,-35.5 -2.17,-4.45 -3.56,-5.93 -7.28,-7.78 -3.8,-1.89 -5.08,-2.1 -7.42,-1.21 -5.92,2.25 -6.57,5.89 -3.82,21.24 3.54,19.8 1.78,45.05 -4.33,62.06 -11.35,31.61 -32.03,53.02 -60.83,63 -8.95,3.1 -9.13,3.12 -33.34,3.5 l -24.33,0.37 0.65,2.66 c 1.49,6.08 8.07,21.29 13.04,30.16 24.22,43.21 64.37,69.64 112.36,73.96 z M 107.51,233.75 c 0.33,0.95 5.9,1.25 23.3,1.25 19.63,0 23.98,-0.28 30.72,-2.01 16.82,-4.3 34,-15.96 44.61,-30.26 3.22,-4.35 5.86,-8.26 5.86,-8.69 0,-2.13 -14.51,-37.13 -17.02,-41.06 -6.25,-9.78 -18.67,-18.32 -30.51,-21 -7.25,-1.63 -19.55,-1.39 -26.19,0.53 -12.3,3.55 -23.46,11.63 -30.59,22.14 -3.21,4.73 -7.74,17.29 -7.64,21.22 0.03,1.44 0.06,6.23 0.05,10.63 0,4.4 0.16,9.57 0.36,11.5 0.9,8.61 5.15,30.19 7.05,35.75 z M 204,116.39 c 10.73,3.01 20.28,5.5 21.23,5.54 1.35,0.05 1.61,-0.52 1.2,-2.68 -0.29,-1.51 -1.08,-6.08 -1.74,-10.15 l -1.22,-7.4 -7.98,-2.22 c -4.4,-1.22 -24.64,-6.82 -44.99,-12.44 -5.7,-1.58 -10.88,-3.01 -15.58,-4.32 -39.05,-10.81 -45.18,-12.51 -46.49,-10.71 -0.4,0.56 -0.35,1.44 -0.66,2.49 -2.33,8.03 -3.79,13.81 -3.54,14.05 0.41,0.39 21.91,6.45 52.77,14.87 15.12,4.13 36.27,9.97 47,12.97 z m -147.7,181 c -16.13,3.61 -18.41,1.23 -14.86,-15.52 4.1,-19.35 17.34,-30.77 36.76,-31.69 8.68,-0.42 8.74,-0.4 9.96,2.27 0.96,2.11 0.97,4.46 0.04,10.85 -2.75,18.83 -13.1,29.89 -31.9,34.09 z M 312,216.48 c 3.58,1.88 6.59,3.44 6.71,3.47 0.75,0.19 4.39,-15.01 5.37,-22.45 1.17,-8.92 0.81,-35.38 -0.52,-38.6 -0.61,-1.48 -19.42,-7.38 -20.4,-6.39 -0.22,0.22 -0.79,4.35 -1.28,9.19 -1.58,15.86 -5.06,29.69 -9.99,39.65 -1.59,3.22 -2.89,6.19 -2.89,6.6 0,0.41 3.71,1.73 8.25,2.93 4.54,1.21 11.17,3.73 14.75,5.6 z m -43.39,116.97 c -10.72,1.87 -30.02,1.87 -41.17,-0.01 -20.86,-3.51 -41.34,-12.9 -59.71,-27.39 -6.03,-4.75 -7.81,-8.04 -5.72,-10.56 1.93,-2.32 3.43,-1.83 9.07,2.98 17.14,14.64 38.51,24.31 60.91,27.59 12.3,1.8 32.17,0.72 44.22,-2.41 19.64,-5.09 35.82,-14.74 50.71,-30.23 4.98,-5.18 9.48,-9.42 10,-9.42 1.08,0 4.08,2.81 4.08,3.82 -0.02,3.27 -13.48,17.59 -23.37,24.87 -13.91,10.24 -31.56,17.72 -49.02,20.76 z m -2.13,-128.2 -0.7,2.75 h 14.01 l 4.07,-8.25 c 2.24,-4.54 5.18,-12.52 6.54,-17.75 2.87,-11.09 5.33,-30.72 4,-31.89 -0.86,-0.77 -20.1,-6.11 -21.98,-6.11 -0.52,0 -0.96,8.32 -1.01,19.25 -0.09,18.48 -1.08,26.92 -4.93,42 z M 56.42,216.04 c 6.19,2.21 7.96,2.39 6.93,0.71 -0.42,-0.69 -4.97,-7.01 -10.12,-14.05 -7.23,-9.9 -9.28,-13.42 -9.04,-15.5 0.24,-2.07 0.92,-2.77 2.93,-3 2.35,-0.28 3.72,1.23 13,14.34 l 10.38,14.65 0.32,-5.34 C 71.79,191.65 64.07,177.62 50.34,170.67 44.77,167.85 35.71,165 32.32,165 c -2.25,0 -2.32,0.26 -2.32,8.79 0,21.9 8.81,35.99 26.42,42.25 z m 239.08,-74.5 c 14.3,4.02 26.12,7.34 26.26,7.38 0.14,0.04 -0.03,-3.02 -0.39,-6.82 -0.37,-4.06 -0.2,-8.15 0.43,-9.94 1.01,-2.9 0.9,-3.1 -2.12,-4.08 -7.47,-2.4 -51.32,-14.08 -52.89,-14.08 -1.17,0 -1.53,0.52 -1.12,1.58 0.33,0.87 1.33,5.43 2.22,10.12 l 1.61,8.54 z M 48,287.9 c 0,2.59 2.21,2.71 10.04,0.51 11.39,-3.2 19.62,-12.37 21.76,-24.24 1.2,-6.69 0.3,-7.18 -8.74,-4.82 -7.15,1.87 -11.82,5.08 -16.73,11.47 -3.07,4 -6.33,12.79 -6.33,17.08 z m 335.78,-121.77 0.36,0.1 c 8.91,2.45 10.51,2.89 10.8,2.45 0.07,-0.1 0.07,-0.25 0.07,-0.43 0.01,-0.41 1.09,-4.62 2.4,-9.36 l 2.38,-8.61 -16.57,-4.63 c -9.11,-2.55 -16.74,-4.47 -16.95,-4.25 -0.53,0.52 5.81,19.85 6.91,21.08 0.48,0.54 5.25,2.18 10.6,3.65 z M 87.5,84.43 c 5.5,1.97 8.26,1.91 8.89,-0.18 0.29,-0.96 1.4,-4.95 2.46,-8.85 l 1.94,-7.1 -5.51,-1.74 C 87.91,64.24 83.53,65.08 80.96,69.3 77.07,75.68 79.63,81.61 87.5,84.43 Z m 76.09,121.53 c -4.8,2.32 -15.95,3.58 -21.24,2.41 -3.01,-0.68 -5.53,-3.74 -4.75,-5.78 0.57,-1.49 1.65,-1.62 8.33,-1.04 6.63,0.58 8.38,0.37 12.79,-1.53 2.97,-1.27 7.08,-4.27 9.81,-7.16 5.3,-5.59 7.81,-5.97 8.27,-1.25 0.25,2.51 -0.52,3.94 -4.01,7.54 -2.38,2.45 -6.52,5.51 -9.2,6.81 z m -4.56,-13.83 c -3.16,3.15 -5.88,3.51 -10.7,1.41 -7.05,-3.06 -6.02,-8.79 2.12,-11.81 5.63,-2.1 10.4,-1.95 11.85,0.37 1.45,2.32 0.01,6.74 -3.27,10.03 z m 244.36,-24.72 -0.69,2.91 8.86,-0.68 c 8.7,-0.67 10.43,-1.44 10.39,-4.64 -0.01,-1.2 -10.84,-9.53 -14.06,-10.82 -0.71,-0.28 -2.62,5.31 -4.5,13.23 z m -81.61,-47.4 c 3.14,0.98 6.06,1.58 6.47,1.33 2.87,-1.74 -2.55,-8.62 -7.83,-9.95 -3.04,-0.76 -7.39,0.29 -9.67,2.34 -2.55,2.3 -2.18,3.1 1.78,3.84 1.93,0.36 6.1,1.46 9.25,2.44 z m -145,50.43 c -1.22,0.86 -2.47,1.56 -2.78,1.56 -0.31,0 -1.56,-0.7 -2.78,-1.56 -5.39,-3.78 -0.75,-11.37 5.28,-8.62 3.31,1.51 3.47,6.39 0.28,8.62 z m -49.71,19.52 c -2.67,1.43 -3.5,1.32 -6.11,-0.79 -4.48,-3.63 -0.04,-10.29 5.47,-8.19 2.08,0.78 2.57,1.63 2.57,4.46 0,2.43 -0.59,3.8 -1.93,4.52 z M 220.48,0 H 449 V 3.22 L 444.98,1.61 C 441.33,0.15 420.74,0 220.48,0 Z"
       fill="#195769"
       id="path1"
       sodipodi:nodetypes="cccccccssccccccccccsscccccccccccccccscscscccccccccccccccscccccccccccccccccccccccccccccccccccccccsccsccccccccccccccccccccccccccccccccccsccccccccccscccccccccscccccccccccssccscccsccccsccccscccccccccccccccccccccccccccccsccccccccccccccsccccccscccccc" />
    <path
       d="M 236.88,349.96 C 188.89,345.64 148.74,319.21 124.52,276 c -4.97,-8.87 -11.55,-24.08 -13.04,-30.16 l -0.65,-2.66 24.33,-0.37 c 24.21,-0.38 24.39,-0.4 33.34,-3.5 28.8,-9.98 49.48,-31.39 60.83,-63 6.11,-17.01 7.87,-42.26 4.33,-62.06 -2.75,-15.35 -2.1,-18.99 3.82,-21.24 2.34,-0.89 3.62,-0.68 7.42,1.21 3.72,1.85 5.11,3.33 7.28,7.78 3.27,6.7 7.29,22.04 9.31,35.5 1.9,12.68 1.93,37.17 0.06,49.5 -4.44,29.21 -18.66,56.83 -38.83,75.41 -8.99,8.28 -10.18,10.66 -6.48,12.98 1.31,0.82 2.34,0.72 4.18,-0.4 4.51,-2.75 19.55,-18.18 25.12,-25.76 -3.05,4.17 -5.54,7.84 -5.54,8.15 0,0.66 8.75,3.29 15.09,4.54 11.11,2.18 30.37,0.36 31.42,-2.97 0.18,-0.56 1.3,-1.65 2.86,-2.87 -3.48,2.79 -4.05,4.95 -1.8,6.6 2.27,1.66 4.54,0.97 11.09,-3.35 15.79,-10.42 27.98,-30.26 32.45,-52.83 2.07,-10.42 1.82,-45.48 -0.4,-56.36 -2.33,-11.41 -2.22,-16.22 0.46,-19.63 4.7,-5.97 13.66,-6.59 18.53,-1.27 6.22,6.78 15.04,31.94 19.23,54.86 10.25,56.05 -0.16,99.27 -31.41,130.4 -9.6,9.57 -18.45,15.96 -30.33,21.92 -21.3,10.68 -47.04,15.64 -70.31,13.54 z M 107.51,233.75 c -1.9,-5.56 -6.15,-27.14 -7.05,-35.75 -0.1,-0.94 -0.19,-2.64 -0.25,-4.65 0.16,1.7 0.37,3.04 0.59,3.64 0.8,2.17 0.97,2.04 2.59,-2.01 8.03,-20.05 26.77,-28.08 32.62,-13.96 2.26,5.45 0.03,10.06 -7.91,16.4 -6.9,5.51 -11.63,12 -12.73,17.46 -0.54,2.71 -0.21,3.16 3.77,5.21 2.4,1.24 6.83,3.05 9.86,4.02 7.07,2.29 22.38,2.46 30.5,0.35 12.92,-3.37 25.94,-12.01 33,-21.91 4.22,-5.91 8.5,-15.05 8.5,-18.14 0,-0.88 -2.4,-2.62 -5.66,-4.11 -4.87,-2.23 -6.9,-2.57 -14.57,-2.43 -10.24,0.18 -14.98,-1.45 -17.31,-5.96 -2.91,-5.62 -0.86,-12.62 4.51,-15.39 4.83,-2.5 16,-1.99 23.68,1.08 2.98,1.19 5.66,2.06 6.6,2.16 5.11,11.41 13.75,32.64 13.75,34.28 0,0.43 -2.64,4.34 -5.86,8.69 -10.61,14.3 -27.79,25.96 -44.61,30.26 -6.74,1.73 -11.09,2.01 -30.72,2.01 -17.4,0 -22.97,-0.3 -23.3,-1.25 z M 312,216.48 c -3.58,-1.87 -10.21,-4.39 -14.75,-5.6 -4.54,-1.2 -8.25,-2.52 -8.25,-2.93 0,-0.41 1.3,-3.38 2.89,-6.6 4.93,-9.96 8.41,-23.79 9.99,-39.65 0.49,-4.84 1.06,-8.97 1.28,-9.19 0.98,-0.99 19.79,4.91 20.4,6.39 1.33,3.22 1.69,29.68 0.52,38.6 -0.98,7.44 -4.62,22.64 -5.37,22.45 -0.12,-0.03 -3.13,-1.59 -6.71,-3.47 z m -43.39,116.97 c 17.46,-3.04 35.11,-10.52 49.02,-20.76 9.89,-7.28 23.35,-21.6 23.37,-24.87 0,-1.01 -3,-3.82 -4.08,-3.82 -0.52,0 -5.02,4.24 -10,9.42 -14.89,15.49 -31.07,25.14 -50.71,30.23 -12.05,3.13 -31.92,4.21 -44.22,2.41 -22.4,-3.28 -43.77,-12.95 -60.91,-27.59 -5.64,-4.81 -7.14,-5.3 -9.07,-2.98 -2.09,2.52 -0.31,5.81 5.72,10.56 18.37,14.49 38.85,23.88 59.71,27.39 11.15,1.88 30.45,1.88 41.17,0.01 z M 56.42,216.04 C 38.81,209.78 30,195.69 30,173.79 c 0,-8.53 0.07,-8.79 2.32,-8.79 3.39,0 12.45,2.85 18.02,5.67 13.73,6.95 21.45,20.98 20.48,37.18 l -0.32,5.34 -10.38,-14.65 c -9.28,-13.11 -10.65,-14.62 -13,-14.34 -2.01,0.23 -2.69,0.93 -2.93,3 -0.24,2.08 1.81,5.6 9.04,15.5 5.15,7.04 9.7,13.36 10.12,14.05 1.03,1.68 -0.74,1.5 -6.93,-0.71 z M 195.8,154.49 c -0.32,-0.5 -0.66,-1.01 -1.02,-1.53 -3.41,-5.04 -5.49,-6.94 -10.22,-9.39 -5.27,-2.73 -6.9,-3.07 -14.5,-3.07 -7.54,0 -9.17,0.34 -13.69,2.84 -2.82,1.57 -7.24,4.99 -9.81,7.6 l -4.68,4.75 -7.34,-0.47 c -10.15,-0.65 -17.14,1.64 -23.94,7.86 -6.43,5.87 -9.69,11.84 -10.5,19.5 -0.01,-3.02 -0.03,-5.69 -0.05,-6.71 -0.1,-3.93 4.43,-16.49 7.64,-21.22 7.13,-10.51 18.29,-18.59 30.59,-22.14 6.64,-1.92 18.94,-2.16 26.19,-0.53 11.84,2.68 24.26,11.22 30.51,21 0.2,0.31 0.48,0.83 0.82,1.51 z M 48,287.9 c 0,-4.29 3.26,-13.08 6.33,-17.08 4.91,-6.39 9.58,-9.6 16.73,-11.47 9.04,-2.36 9.94,-1.87 8.74,4.82 -2.14,11.87 -10.37,21.04 -21.76,24.24 C 50.21,290.61 48,290.49 48,287.9 Z M 87.5,84.43 C 79.63,81.61 77.07,75.68 80.96,69.3 c 2.57,-4.22 6.95,-5.06 14.32,-2.74 l 5.51,1.74 -1.94,7.1 c -1.06,3.9 -2.17,7.89 -2.46,8.85 C 95.76,86.34 93,86.4 87.5,84.43 Z M 0,231.15 c 0,0 0,-206.21 0,0 z M 321.78,120.01 c -3.15,-0.98 -7.32,-2.08 -9.25,-2.44 -3.96,-0.74 -4.33,-1.54 -1.78,-3.84 2.28,-2.05 6.63,-3.1 9.67,-2.34 5.28,1.33 10.7,8.21 7.83,9.95 -0.41,0.25 -3.33,-0.35 -6.47,-1.33 z m -145,50.43 c 3.19,-2.23 3.03,-7.11 -0.28,-8.62 -6.03,-2.75 -10.67,4.84 -5.28,8.62 1.22,0.86 2.47,1.56 2.78,1.56 0.31,0 1.56,-0.7 2.78,-1.56 z m -49.71,19.52 c 1.34,-0.72 1.93,-2.09 1.93,-4.52 0,-2.83 -0.49,-3.68 -2.57,-4.46 -5.51,-2.1 -9.95,4.56 -5.47,8.19 2.61,2.11 3.44,2.22 6.11,0.79 z"
       fill="#5199a3"
       id="path2"
       sodipodi:nodetypes="cccccccccccccccccscccccccccccccccccccccccccsccccccsccscccsccccccccccscccccccccssccccccccccccsccccccccccccsccccsccccccccccccccccccsccsccc" />
    <path
       d="M 204.00 116.39 C193.27,113.39 172.12,107.55 157.00,103.42 C126.14,95.00 104.64,88.94 104.23,88.55 C103.98,88.31 105.39,82.72 107.66,74.89 C107.13,77.33 107.19,80.10 108.14,80.37 C108.89,80.58 116.93,82.65 126.00,84.97 C135.07,87.29 146.77,90.46 152.00,92.02 C157.23,93.58 169.38,96.93 179.00,99.46 C188.62,102.00 201.90,105.60 208.50,107.48 C223.14,111.63 224.97,112.13 224.46,107.72 L 224.69 109.10 C225.35,113.17 226.14,117.74 226.43,119.25 C226.84,121.41 226.58,121.98 225.23,121.93 C224.28,121.89 214.73,119.40 204.00,116.39 ZM 295.50 141.54 L 269.50 134.24 L 267.89 125.70 C267.00,121.01 266.00,116.45 265.67,115.58 C265.26,114.52 265.62,114.00 266.79,114.00 C266.79,114.00 266.80,114.00 266.81,114.00 C265.50,114.03 265.48,114.66 266.50,118.70 C267.16,121.29 268.33,123.73 269.10,124.13 C269.87,124.53 281.08,127.76 294.00,131.31 C306.92,134.85 318.02,137.81 318.66,137.88 C319.29,137.95 320.49,136.00 321.33,133.55 L 321.70 132.45 C321.15,134.37 321.01,138.25 321.37,142.10 C321.73,145.90 321.90,148.96 321.76,148.92 C321.62,148.88 309.80,145.56 295.50,141.54 ZM 383.78 166.13 C378.43,164.66 373.66,163.02 373.18,162.48 C372.46,161.67 369.47,153.03 367.65,147.06 C367.75,147.32 367.85,147.59 367.95,147.85 C369.60,152.29 370.58,153.67 371.83,153.38 C372.75,153.17 378.45,154.31 384.50,155.93 C390.55,157.55 395.99,158.90 396.58,158.94 C396.95,158.96 397.45,158.23 397.90,157.10 L 397.41 158.89 C396.10,163.63 395.02,167.84 395.01,168.25 C395.01,168.43 395.01,168.58 394.94,168.68 C394.65,169.12 393.05,168.68 384.14,166.23 ZM 403.39 167.41 C405.27,159.49 407.18,153.90 407.89,154.18 C411.11,155.47 421.94,163.80 421.95,165.00 C421.99,168.20 420.26,168.97 411.56,169.64 L 402.70 170.32 ZM 113.01 71.69 C117.63,72.48 126.75,74.93 145.02,79.99 C126.14,74.82 117.26,72.53 113.01,71.69 ZM 107.93 73.86 C108.08,73.09 108.11,72.45 108.43,72.01 C108.57,71.82 108.78,71.66 109.08,71.55 C108.61,72.05 108.22,72.89 107.93,73.86 ZM 366.25 141.45 C366.25,141.43 366.26,141.41 366.27,141.40 C366.48,141.19 373.73,143.00 382.54,145.46 C374.04,143.09 366.95,141.35 366.25,141.45 ZM 399.03 153.01 L 399.67 150.25 L 399.79 150.28 Z"
       fill="rgb(205,218,218)"
       id="path3" />
    <path
       style="fill:#ffffff;stroke-width:0.580854"
       d="m 131.72174,224.49298 c -4.39338,-0.95459 -14.18962,-5.16851 -15.57553,-6.69992 -0.89256,-0.98628 -0.92111,-1.40814 -0.2561,-3.78334 1.40096,-5.00373 6.13208,-11.10953 13.41888,-17.31789 6.61382,-5.63499 8.66588,-9.79227 7.2143,-14.61551 -2.0329,-6.75481 -7.47537,-9.71251 -14.35563,-7.80155 -3.40688,0.94625 -9.0021,5.04337 -12.16196,8.90564 -1.60375,1.96025 -4.16909,6.13418 -5.70075,9.27541 -3.26677,6.69969 -3.49411,6.55174 -3.95372,-2.57309 -0.573305,-11.38194 2.2035,-18.61803 9.94882,-25.92566 2.64679,-2.49721 5.50141,-4.49275 8.42238,-5.88769 l 4.41858,-2.11013 9.58409,-0.19432 9.58408,-0.19432 4.06598,-3.8941 c 8.5067,-8.14712 12.64476,-10.32148 20.66096,-10.85639 10.3405,-0.69 17.81794,1.77856 23.77436,7.84875 2.99103,3.04816 7.63453,10.48508 6.54671,10.48508 -0.2704,0 -2.70353,-0.76687 -5.40695,-1.70414 -8.98574,-3.11536 -18.12719,-3.59692 -23.52182,-1.23911 -7.10777,3.10655 -8.79608,12.56154 -3.23588,18.12174 2.83866,2.83866 5.40782,3.44878 16.6147,3.94561 8.43312,0.37386 9.62554,0.56175 12.87779,2.02919 1.97127,0.88944 4.17007,2.24089 4.88623,3.00321 1.18735,1.26387 1.24139,1.58875 0.61306,3.68591 -1.19321,3.9826 -5.71809,12.36714 -8.95467,16.5929 -7.53772,9.84143 -21.74884,18.61969 -33.91042,20.94658 -5.54277,1.06051 -20.63569,1.03524 -25.59749,-0.0429 z m 22.84017,-16.01084 c 6.19153,-0.86116 9.99023,-2.41257 14.5735,-5.95188 5.41378,-4.18065 7.73458,-7.34086 7.73458,-10.53211 0,-5.03621 -2.5555,-4.94632 -8.13196,0.28605 -4.64668,4.35997 -8.69818,7.07947 -12.49738,8.38866 -2.41712,0.83293 -4.07523,0.93266 -10.04066,0.60387 -7.70197,-0.42451 -8.82806,-0.12866 -8.82806,2.31931 0,4.52923 6.4909,6.3742 17.18998,4.8861 z m 1.86183,-14.13468 c 4.93603,-2.57871 8.24308,-10.13905 5.59386,-12.78828 -2.01865,-2.01865 -7.30744,-1.90785 -12.34346,0.25859 -7.83785,3.37175 -8.09886,9.21215 -0.54874,12.27815 3.06072,1.24291 5.25587,1.31857 7.29834,0.25154 z"
       id="path5" />
    <path
       style="fill:#ffffff;stroke-width:0.580854"
       d="m 183.84023,100.43571 c -19.64738,-5.406844 -44.21749,-12.064671 -54.60026,-14.79517 -10.38276,-2.7305 -19.46586,-5.206221 -20.18467,-5.501603 -1.05336,-0.432863 -1.30692,-0.995841 -1.30692,-2.901772 0,-1.300592 0.40378,-3.145534 0.89729,-4.099871 0.81943,-1.58461 1.08402,-1.702916 3.04948,-1.363554 4.89154,0.844587 28.22092,7.022232 63.43228,16.796934 8.78541,2.438838 23.16154,6.408732 31.94696,8.821985 8.78541,2.413253 16.03614,4.442711 16.11273,4.509911 0.31248,0.27414 1.07516,7.13982 0.86364,7.7744 -0.12564,0.37689 -1.18683,0.66368 -2.35822,0.63731 -1.17139,-0.0264 -18.20493,-4.47172 -37.85231,-9.87857 z"
       id="path6" />
    <path
       style="fill:#ffffff;stroke-width:0.580854"
       d="m 315.1132,136.71093 c -8.18007,-2.16585 -39.04636,-10.74331 -42.51023,-11.81321 -3.88184,-1.19899 -3.88395,-1.20082 -5.08247,-4.40416 -1.48278,-3.96307 -1.56055,-6.06536 -0.22438,-6.06536 1.95098,0 49.28996,12.74598 52.8255,14.22322 1.83981,0.76872 2.04374,1.05436 1.70797,2.3922 -0.5289,2.1073 -2.6987,6.63005 -3.15003,6.56596 -0.20442,-0.029 -1.80928,-0.43342 -3.56636,-0.89865 z"
       id="path7" />
    <path
       style="fill:#ffffff;stroke-width:0.580854"
       d="m 385.68693,155.94696 c -5.43098,-1.4027 -10.78936,-2.56588 -11.9075,-2.58485 -1.11814,-0.019 -2.34913,-0.23541 -2.73553,-0.48098 -0.93793,-0.59608 -3.47095,-6.3924 -3.98052,-9.10865 -0.3644,-1.94242 -0.29219,-2.13802 0.68575,-1.85763 0.60118,0.17237 4.22965,1.1108 8.06329,2.08541 8.90704,2.2644 22.89772,6.20125 23.23442,6.53795 0.69854,0.69855 -1.90301,8.05055 -2.82979,7.997 -0.36058,-0.0208 -5.09913,-1.18555 -10.53012,-2.58825 z"
       id="path8" />
    <path
       style="fill:#ffffff;stroke-width:0.580854"
       d="m 258.47995,262.1824 c -0.63894,-0.12582 -2.59932,-0.50825 -4.35641,-0.84985 -5.47204,-1.06383 -13.35963,-3.5821 -13.35963,-4.26533 0,-0.35871 1.32132,-2.4747 2.93627,-4.7022 6.26037,-8.63493 15.78334,-25.9175 18.34685,-33.29643 l 1.07975,-3.108 7.84153,0.37201 c 17.53469,0.83184 25.39844,2.45149 37.19143,7.66007 l 7.52876,3.32522 -2.09758,3.81874 c -4.17578,7.60218 -13.03172,17.02632 -21.19148,22.55113 -2.36277,1.59978 -5.0056,3.71202 -5.87295,4.69385 -1.66619,1.88613 -4.12343,2.77574 -10.04007,3.63489 -3.43343,0.49856 -15.74131,0.61196 -18.00647,0.1659 z"
       id="path9" />
  </g>
</svg>
